<svg width="87" height="30" viewBox="0 0 87 30" fill="none" xmlns="http://www.w3.org/2000/svg">
<path fill-rule="evenodd" clip-rule="evenodd" d="M2.14014 28.211H17.3403C18.2764 28.2494 19.2051 28.0308 20.0259 27.5791C20.8466 27.1273 21.5278 26.4595 21.9961 25.648C22.4322 24.7881 22.6034 23.8182 22.4883 22.8609C22.3731 21.9036 21.9767 21.002 21.3491 20.27L12.543 9.70303C12.3154 9.42415 12.2064 9.06725 12.2388 8.70876C12.2711 8.35027 12.4425 8.01869 12.7163 7.78503L21.6812 0.31604L22.8174 1.54204L14.2939 8.96404L22.7529 19.106C23.5864 20.0847 24.1219 21.2819 24.2954 22.5556C24.4689 23.8293 24.2733 25.1261 23.7319 26.292C23.1577 27.4373 22.2666 28.3931 21.1641 29.0456C20.0616 29.6981 18.7944 30.0197 17.5142 29.972L2.14111 29.987C2.02525 29.9874 1.91039 29.965 1.80322 29.9209C1.69605 29.8769 1.59871 29.8121 1.5166 29.7304C1.43449 29.6487 1.36923 29.5515 1.32471 29.4446C1.28019 29.3376 1.25746 29.2229 1.25732 29.107V29.091C1.25732 28.9751 1.28025 28.8603 1.32471 28.7532C1.36917 28.6461 1.43399 28.5489 1.51611 28.467C1.59824 28.3852 1.69599 28.3203 1.80322 28.2762C1.91046 28.2321 2.02517 28.2096 2.14111 28.21" fill="#8989A2"/>
<path fill-rule="evenodd" clip-rule="evenodd" d="M1.9502 28.226L17.4014 25.38C17.7748 25.3013 18.1212 25.1264 18.4062 24.8726C18.6913 24.6188 18.9051 24.2949 19.0264 23.933C19.153 23.5733 19.1829 23.1866 19.1138 22.8115C19.0446 22.4365 18.8789 22.086 18.6323 21.795C14.9863 17.408 11.3564 13.052 7.71045 8.65002C7.53302 8.43981 7.40731 8.1907 7.34424 7.92294C7.28117 7.65519 7.28223 7.37633 7.34717 7.10902C7.41121 6.84099 7.53729 6.59174 7.71533 6.38139C7.89337 6.17104 8.1183 6.00548 8.37207 5.89803L21.978 0.0170288L22.4673 1.74702L9.49316 7.37602C9.44902 7.39074 9.40984 7.41709 9.37939 7.45229C9.34895 7.48748 9.32852 7.53022 9.32031 7.57602C9.30722 7.62221 9.30587 7.67097 9.31689 7.7177C9.32792 7.76442 9.35094 7.80756 9.3833 7.84302C12.9343 12.104 16.4533 16.334 20.0063 20.595C20.4828 21.1199 20.8066 21.7651 20.9429 22.4608C21.0791 23.1565 21.0225 23.8762 20.7793 24.542C20.5731 25.1984 20.1925 25.7864 19.6782 26.2435C19.164 26.7005 18.5354 27.0093 17.8594 27.137L5.64307 29.385L1.9502 28.226Z" fill="#8989A2"/>
<path fill-rule="evenodd" clip-rule="evenodd" d="M22.4053 1.76199L6.95312 4.60799C6.57666 4.67952 6.22661 4.8519 5.94043 5.10674C5.65425 5.36157 5.44267 5.68931 5.32812 6.05499C5.20213 6.41491 5.17242 6.80148 5.2417 7.17647C5.31098 7.55145 5.47686 7.90186 5.72314 8.19299C9.36914 12.58 12.999 16.936 16.645 21.323C16.822 21.5367 16.9473 21.7885 17.0103 22.0587C17.0732 22.3289 17.0725 22.6101 17.0083 22.88C16.9413 23.1467 16.8139 23.3946 16.6362 23.6045C16.4585 23.8144 16.2354 23.9809 15.9834 24.091L2.37695 29.972L1.88818 28.242L14.8623 22.613C14.9036 22.5937 14.9404 22.566 14.9702 22.5315C15 22.497 15.0221 22.4566 15.0352 22.413C15.0448 22.3666 15.0441 22.3186 15.0332 22.2725C15.0223 22.2264 15.0015 22.1832 14.9722 22.146C7.27217 12.916 11.1531 17.555 4.3501 9.39398C3.87367 8.86906 3.54982 8.22389 3.41357 7.52821C3.27733 6.83254 3.33393 6.11285 3.57715 5.44699C3.78149 4.78942 4.16148 4.20015 4.67627 3.74281C5.19106 3.28548 5.82098 2.97745 6.49805 2.85199L21.8081 0.00598145L22.4053 1.76199Z" fill="#8989A2"/>
<path fill-rule="evenodd" clip-rule="evenodd" d="M22.2001 1.77802H6.99988C6.0661 1.74235 5.1405 1.96032 4.32068 2.40879C3.50087 2.85726 2.81772 3.51946 2.34412 4.32502C1.91438 5.19016 1.74805 6.16248 1.86609 7.12124C1.98414 8.07999 2.38142 8.98296 3.00818 9.71802L11.8153 20.285C12.0442 20.5647 12.1527 20.9237 12.1171 21.2833C12.0814 21.6429 11.9042 21.9737 11.6249 22.203L2.67713 29.672L1.53992 28.446L10.0472 21.024L1.60291 10.882C0.76968 9.90322 0.234751 8.70596 0.0614049 7.43227C-0.111942 6.15858 0.0835409 4.8619 0.624882 3.69602C1.19707 2.55303 2.08577 1.59852 3.18494 0.946112C4.28411 0.2937 5.54766 -0.0291435 6.82508 0.0160121L22.1981 2.09034e-05C22.4339 -0.00159007 22.6609 0.0899715 22.8295 0.254782C22.998 0.419592 23.0943 0.644299 23.098 0.880011V0.896017C23.0946 1.1319 22.9981 1.35688 22.8295 1.5219C22.6609 1.68693 22.434 1.77862 22.1981 1.77701" fill="#8989A2"/>
<path fill-rule="evenodd" clip-rule="evenodd" d="M10.835 22.864L2.67627 29.673L1.53906 28.446L9.00439 21.936L10.835 22.864Z" fill="#8989A2"/>
<path fill-rule="evenodd" clip-rule="evenodd" d="M13.4399 25.191L2.37598 29.971L1.88721 28.241L12.4771 23.65L13.4399 25.191Z" fill="#8989A2"/>
<path fill-rule="evenodd" clip-rule="evenodd" d="M1.9502 28.226L14.3242 25.946L14.7974 27.691L5.64307 29.391L1.9502 28.226Z" fill="#8989A2"/>
<path fill-rule="evenodd" clip-rule="evenodd" d="M2.14014 28.21H14.9399C15.0855 28.7858 15.1599 29.3772 15.1611 29.971L2.14014 29.987C2.02427 29.9874 1.90942 29.965 1.80225 29.9209C1.69508 29.8769 1.59774 29.8121 1.51562 29.7304C1.43351 29.6487 1.36825 29.5515 1.32373 29.4446C1.27921 29.3376 1.25648 29.2229 1.25635 29.107V29.091C1.25635 28.9751 1.27927 28.8603 1.32373 28.7532C1.36819 28.6461 1.43301 28.5488 1.51514 28.467C1.59726 28.3852 1.69501 28.3203 1.80225 28.2762C1.90948 28.2321 2.02419 28.2096 2.14014 28.21Z" fill="#8989A2"/>
<path fill-rule="evenodd" clip-rule="evenodd" d="M76.0675 20.804C75.9431 20.5531 75.8005 20.3115 75.6413 20.081L72.4684 14.986L76.0685 9.40403L71.7912 9.38803C71.6802 9.41903 68.9183 14.105 68.5553 14.703V5.14303C68.1453 5.11203 65.3042 5.09604 64.9552 5.15904V20.82C65.6972 20.805 68.0953 20.851 68.5553 20.805L68.5714 15.522C68.6814 15.632 71.5074 20.491 71.6334 20.805L76.0675 20.804ZM86.3903 16.039C86.7387 14.5784 86.5423 13.0409 85.8375 11.715C85.1984 10.6361 84.1792 9.83442 82.9801 9.46704C81.5449 9.00076 79.9887 9.07907 78.6076 9.68704C77.3642 10.2609 76.3689 11.2631 75.8039 12.5105C75.2388 13.7579 75.1418 15.167 75.5304 16.48C76.2244 19.247 78.5766 20.663 81.2746 20.961C82.7789 21.1504 84.3063 20.9945 85.7414 20.505V17.942H82.8053C81.8525 17.9911 80.9054 17.7674 80.0753 17.297C79.8391 17.162 79.6323 16.9812 79.4669 16.7652C79.3016 16.5492 79.1811 16.3023 79.1124 16.039H86.3903ZM79.0182 13.665C79.0231 13.4148 79.0788 13.1683 79.1818 12.9402C79.2848 12.7121 79.4328 12.5074 79.6173 12.3383C79.8018 12.1693 80.0189 12.0394 80.255 11.9567C80.4912 11.874 80.7417 11.8401 80.9914 11.857C81.2325 11.8413 81.4743 11.8774 81.7003 11.9628C81.9264 12.0482 82.1314 12.181 82.3019 12.3523C82.4724 12.5235 82.6042 12.7293 82.6886 12.9557C82.773 13.1821 82.8079 13.424 82.7912 13.665H79.0182ZM57.3014 12.297C57.3645 12.2945 57.4277 12.2999 57.4894 12.313C58.7054 12.344 59.8575 12.879 59.9835 14.027C58.347 13.8723 56.6972 14.1095 55.1706 14.719C54.4987 14.9911 53.9455 15.4933 53.61 16.1358C53.2745 16.7784 53.1787 17.5193 53.3395 18.226C53.5056 19.074 53.9791 19.8306 54.6696 20.3501C55.3601 20.8697 56.2184 21.1154 57.0792 21.04C57.6746 21.0773 58.2702 20.9694 58.8146 20.7255C59.359 20.4817 59.8358 20.1091 60.2042 19.64L60.7575 20.819H63.4401L63.3786 14.655C63.3626 13.145 63.2843 11.982 62.3683 10.944C60.9003 9.26203 58.4222 8.86803 56.1012 9.32403C55.3959 9.47026 54.7085 9.69186 54.0504 9.98503V12.296L57.3014 12.297ZM59.9835 17.832C59.6525 18.414 57.2372 18.87 56.9542 17.632C56.5902 15.997 59.5105 16.091 59.9835 16.248V17.832ZM30.9264 19.939C31.0264 20.128 31.3845 20.253 31.5905 20.348C32.3383 20.671 33.1312 20.8777 33.9416 20.961C36.1986 21.228 38.5344 20.819 39.7184 18.807C39.9887 18.3275 40.1395 17.7901 40.1588 17.2401C40.1782 16.69 40.0652 16.1433 39.8292 15.646C38.6612 13.46 35.0475 13.822 34.3205 13.114C34.2297 13.0073 34.1822 12.8702 34.1881 12.7303C34.1941 12.5903 34.2527 12.4577 34.3522 12.359C34.8604 12.0138 35.4829 11.8787 36.0885 11.982H39.5763V10.252C39.4823 10.032 38.5345 9.68603 38.2355 9.57603C36.5589 9.00615 34.7375 9.02839 33.0753 9.63903C32.5896 9.82702 32.1519 10.1207 31.7936 10.4987C31.4353 10.8768 31.1652 11.3298 31.0036 11.8249C30.8419 12.32 30.7924 12.8449 30.8585 13.3615C30.9247 13.8782 31.1051 14.3736 31.3864 14.812C32.3954 16.133 33.8804 16.227 35.6164 16.636C36.0734 16.746 36.8626 16.872 36.8166 17.407C36.7376 18.146 35.2543 18.207 34.6383 18.225H30.9293L30.9264 19.939ZM44.8786 13.193C45.3947 12.6481 46.1023 12.3253 46.8522 12.293C48.4622 12.277 48.7931 13.347 48.7931 14.573L48.7775 15.564V20.816H52.3771C52.3921 18.552 52.3773 16.303 52.4083 14.039C52.5175 12.9456 52.3491 11.8423 51.9191 10.831C51.5687 10.2799 51.0758 9.83394 50.4923 9.5406C49.9088 9.24726 49.2565 9.11747 48.6051 9.16503C47.8956 9.13756 47.1893 9.27349 46.5407 9.56236C45.892 9.85122 45.3187 10.2853 44.8644 10.831V5.12303H41.2643V20.816H44.8644L44.8786 13.193Z" fill="#8989A2"/>
</svg>
