<svg width="76" height="16" viewBox="0 0 76 16" fill="none" xmlns="http://www.w3.org/2000/svg">
<path d="M35.9969 16C40.4152 16 43.9969 12.4183 43.9969 8C43.9969 3.58172 40.4152 0 35.9969 0C31.5787 0 27.9969 3.58172 27.9969 8C27.9969 12.4183 31.5787 16 35.9969 16Z" fill="#2DAAE1"/>
<path d="M41.0949 4.83402C40.7136 5.00301 40.3091 5.11391 39.8949 5.16302C40.3317 4.90159 40.6586 4.49044 40.8149 4.00602C40.4045 4.24997 39.9554 4.42178 39.4869 4.51401C39.2 4.20803 38.8277 3.99537 38.4184 3.90365C38.009 3.81193 37.5816 3.84539 37.1915 3.99967C36.8014 4.15396 36.4667 4.42193 36.2309 4.76884C35.995 5.11574 35.8689 5.52553 35.8689 5.94501C35.8688 6.10555 35.8869 6.26558 35.9229 6.42202C35.0913 6.38036 34.2778 6.1643 33.5351 5.78788C32.7924 5.41145 32.1372 4.88307 31.6119 4.23702C31.3446 4.69745 31.2628 5.24239 31.3829 5.76104C31.5031 6.27968 31.8164 6.73308 32.2589 7.02901C31.927 7.01879 31.6023 6.9293 31.3119 6.76801V6.79401C31.3118 7.27704 31.4789 7.74523 31.7848 8.11909C32.0906 8.49294 32.5165 8.74943 32.9899 8.84502C32.8104 8.89389 32.625 8.91844 32.4389 8.91802C32.3067 8.91798 32.1748 8.90559 32.0449 8.88102C32.1787 9.2965 32.4389 9.65981 32.7892 9.92014C33.1396 10.1805 33.5625 10.3248 33.9989 10.333C33.121 11.0208 32.0062 11.3322 30.8989 11.199C31.7979 11.775 32.8353 12.0985 33.9023 12.1354C34.9694 12.1723 36.0267 11.9213 36.9633 11.4087C37.8999 10.8962 38.6813 10.141 39.2254 9.22242C39.7696 8.30382 40.0564 7.2557 40.0559 6.18803C40.0559 6.09736 40.0539 6.00701 40.0499 5.91701C40.4597 5.62086 40.8136 5.25415 41.0949 4.83402Z" fill="white"/>
<path d="M15.117 16C15.3512 16 15.5758 15.907 15.7414 15.7414C15.907 15.5758 16 15.3512 16 15.117V0.883C16 0.648814 15.907 0.424219 15.7414 0.258625C15.5758 0.0930301 15.3512 0 15.117 0L0.883 0C0.648814 0 0.424219 0.0930301 0.258625 0.258625C0.0930301 0.424219 0 0.648814 0 0.883L0 15.117C0 15.3512 0.0930301 15.5758 0.258625 15.7414C0.424219 15.907 0.648814 16 0.883 16H15.117Z" fill="#485A96"/>
<path d="M11.04 15.9999V9.80692H13.12L13.431 7.39192H11.04V5.84792C11.04 5.14792 11.234 4.67192 12.24 4.67192H13.519V2.51192C12.9002 2.44473 12.2783 2.41135 11.656 2.41192C11.2328 2.38123 10.8079 2.44347 10.4113 2.59427C10.0147 2.74507 9.65585 2.98079 9.35993 3.2849C9.06401 3.58901 8.83818 3.95416 8.69827 4.35476C8.55835 4.75535 8.50773 5.1817 8.54996 5.60392V7.38492H6.46497V9.80692H8.54996V16.0069H11.044L11.04 15.9999Z" fill="white"/>
<path d="M65.3319 8C65.3319 7.47247 65.4884 6.9568 65.7815 6.51819C66.0746 6.07958 66.4912 5.73775 66.9785 5.53592C67.4659 5.33409 68.0022 5.28133 68.5196 5.38432C69.037 5.48731 69.5122 5.74141 69.8851 6.1145C70.2581 6.48759 70.512 6.96289 70.6148 7.48031C70.7176 7.99772 70.6646 8.534 70.4626 9.02131C70.2606 9.50862 69.9186 9.92508 69.4799 10.218C69.0412 10.5109 68.5254 10.6672 67.9979 10.667C67.2908 10.6667 66.6127 10.3856 66.1127 9.8855C65.6128 9.38537 65.3319 8.70716 65.3319 8ZM63.8899 8C63.8899 8.81249 64.1309 9.60673 64.5822 10.2823C65.0336 10.9578 65.6752 11.4844 66.4259 11.7953C67.1765 12.1062 68.0025 12.1876 68.7994 12.0291C69.5962 11.8706 70.3282 11.4793 70.9027 10.9048C71.4772 10.3303 71.8685 9.5983 72.027 8.80143C72.1855 8.00456 72.1041 7.17858 71.7932 6.42794C71.4823 5.6773 70.9558 5.03572 70.2802 4.58432C69.6047 4.13293 68.8104 3.892 67.9979 3.892C66.9084 3.892 65.8635 4.32481 65.0931 5.09521C64.3227 5.8656 63.8899 6.91049 63.8899 8ZM71.3079 3.729C71.3079 3.91887 71.3642 4.10448 71.4697 4.26235C71.5752 4.42022 71.7251 4.54326 71.9005 4.61592C72.076 4.68858 72.269 4.7076 72.4552 4.67055C72.6414 4.63351 72.8125 4.54208 72.9467 4.40782C73.081 4.27356 73.1724 4.10251 73.2095 3.91629C73.2465 3.73006 73.2275 3.53704 73.1548 3.36162C73.0822 3.18621 72.9591 3.03628 72.8013 2.93079C72.6434 2.8253 72.4578 2.769 72.2679 2.769C72.0133 2.769 71.7691 2.87014 71.5891 3.05018C71.4091 3.23021 71.3079 3.47439 71.3079 3.729ZM64.7659 14.512C64.2585 14.5063 63.7558 14.4133 63.2799 14.237C62.9324 14.1081 62.618 13.9031 62.3599 13.637C62.0934 13.3793 61.8883 13.0648 61.7599 12.717C61.5836 12.2411 61.4905 11.7385 61.4849 11.231C61.4459 10.388 61.4379 10.131 61.4379 7.998C61.4379 5.865 61.4459 5.609 61.4849 4.765C61.4912 4.25761 61.5842 3.75504 61.7599 3.279C61.8888 2.93143 62.0938 2.6171 62.3599 2.359C62.6176 2.09238 62.9321 1.88729 63.2799 1.759C63.7558 1.58265 64.2585 1.48962 64.7659 1.484C65.6089 1.445 65.8659 1.437 67.9979 1.437C70.1299 1.437 70.3869 1.445 71.2309 1.484C71.7383 1.49029 72.2409 1.5833 72.7169 1.759C73.0646 1.88766 73.379 2.0927 73.6369 2.359C73.9032 2.61692 74.1083 2.93131 74.2369 3.279C74.4133 3.75486 74.5063 4.25755 74.5119 4.765C74.5509 5.609 74.5589 5.865 74.5589 7.998C74.5589 10.131 74.5509 10.387 74.5119 11.231C74.5059 11.7384 74.4129 12.241 74.2369 12.717C74.1037 13.062 73.8998 13.3754 73.6381 13.6368C73.3765 13.8983 73.0631 14.102 72.7179 14.235C72.2421 14.4114 71.7394 14.5044 71.2319 14.51C70.3889 14.549 70.1319 14.557 67.9989 14.557C65.8659 14.557 65.6099 14.549 64.7669 14.51L64.7659 14.512ZM64.6979 0.048C64.0349 0.0614449 63.3789 0.187228 62.7579 0.42C62.2241 0.621021 61.7406 0.936001 61.3409 1.343C60.9336 1.74233 60.6185 2.22598 60.4179 2.76C60.1852 3.381 60.0594 4.03696 60.0459 4.7C60.0069 5.555 59.9979 5.827 59.9979 8C59.9979 10.173 60.0069 10.445 60.0459 11.3C60.0594 11.963 60.1852 12.619 60.4179 13.24C60.6186 13.774 60.9336 14.2576 61.3409 14.657C61.7407 15.0638 62.2243 15.3787 62.7579 15.58C63.3796 15.8129 64.0362 15.9387 64.6999 15.952C65.5529 15.99 65.8249 16 67.9979 16C70.1709 16 70.4429 15.991 71.2979 15.952C71.9616 15.9388 72.6183 15.813 73.2399 15.58C73.7715 15.3745 74.2542 15.0602 74.6572 14.6572C75.0601 14.2543 75.3744 13.7715 75.5799 13.24C75.8132 12.6185 75.939 11.9618 75.9519 11.298C75.9879 10.445 75.9979 10.173 75.9979 8C75.9979 5.827 75.9889 5.555 75.9499 4.7C75.9365 4.03695 75.8107 3.38099 75.5779 2.76C75.3766 2.22634 75.0617 1.74284 74.6549 1.343C74.2558 0.935898 73.7725 0.62089 73.2389 0.42C72.6177 0.186967 71.9613 0.0611776 71.2979 0.048C70.4439 0.01 70.1709 0 67.9979 0C65.8249 0 65.5529 0.009 64.6979 0.048Z" fill="url(#paint0_radial_5_161)"/>
<path d="M65.3319 8C65.3319 7.47247 65.4884 6.9568 65.7815 6.51819C66.0746 6.07958 66.4912 5.73775 66.9785 5.53592C67.4659 5.33409 68.0022 5.28133 68.5196 5.38432C69.037 5.48731 69.5122 5.74141 69.8851 6.1145C70.2581 6.48759 70.512 6.96289 70.6148 7.48031C70.7176 7.99772 70.6646 8.534 70.4626 9.02131C70.2606 9.50862 69.9186 9.92508 69.4799 10.218C69.0412 10.5109 68.5254 10.6672 67.9979 10.667C67.2908 10.6667 66.6127 10.3856 66.1127 9.8855C65.6128 9.38537 65.3319 8.70716 65.3319 8ZM63.8899 8C63.8899 8.81249 64.1309 9.60673 64.5822 10.2823C65.0336 10.9578 65.6752 11.4844 66.4259 11.7953C67.1765 12.1062 68.0025 12.1876 68.7994 12.0291C69.5962 11.8706 70.3282 11.4793 70.9027 10.9048C71.4772 10.3303 71.8685 9.5983 72.027 8.80143C72.1855 8.00456 72.1041 7.17858 71.7932 6.42794C71.4823 5.6773 70.9558 5.03572 70.2802 4.58432C69.6047 4.13293 68.8104 3.892 67.9979 3.892C66.9084 3.892 65.8635 4.32481 65.0931 5.09521C64.3227 5.8656 63.8899 6.91049 63.8899 8ZM71.3079 3.729C71.3079 3.91887 71.3642 4.10448 71.4697 4.26235C71.5752 4.42022 71.7251 4.54326 71.9005 4.61592C72.076 4.68858 72.269 4.7076 72.4552 4.67055C72.6414 4.63351 72.8125 4.54208 72.9467 4.40782C73.081 4.27356 73.1724 4.10251 73.2095 3.91629C73.2465 3.73006 73.2275 3.53704 73.1548 3.36162C73.0822 3.18621 72.9591 3.03628 72.8013 2.93079C72.6434 2.8253 72.4578 2.769 72.2679 2.769C72.0133 2.769 71.7691 2.87014 71.5891 3.05018C71.4091 3.23021 71.3079 3.47439 71.3079 3.729ZM64.7659 14.512C64.2585 14.5063 63.7558 14.4133 63.2799 14.237C62.9324 14.1081 62.618 13.9031 62.3599 13.637C62.0934 13.3793 61.8883 13.0648 61.7599 12.717C61.5836 12.2411 61.4905 11.7385 61.4849 11.231C61.4459 10.388 61.4379 10.131 61.4379 7.998C61.4379 5.865 61.4459 5.609 61.4849 4.765C61.4912 4.25761 61.5842 3.75504 61.7599 3.279C61.8888 2.93143 62.0938 2.6171 62.3599 2.359C62.6176 2.09238 62.9321 1.88729 63.2799 1.759C63.7558 1.58265 64.2585 1.48962 64.7659 1.484C65.6089 1.445 65.8659 1.437 67.9979 1.437C70.1299 1.437 70.3869 1.445 71.2309 1.484C71.7383 1.49029 72.2409 1.5833 72.7169 1.759C73.0646 1.88766 73.379 2.0927 73.6369 2.359C73.9032 2.61692 74.1083 2.93131 74.2369 3.279C74.4133 3.75486 74.5063 4.25755 74.5119 4.765C74.5509 5.609 74.5589 5.865 74.5589 7.998C74.5589 10.131 74.5509 10.387 74.5119 11.231C74.5059 11.7384 74.4129 12.241 74.2369 12.717C74.1037 13.062 73.8998 13.3754 73.6381 13.6368C73.3765 13.8983 73.0631 14.102 72.7179 14.235C72.2421 14.4114 71.7394 14.5044 71.2319 14.51C70.3889 14.549 70.1319 14.557 67.9989 14.557C65.8659 14.557 65.6099 14.549 64.7669 14.51L64.7659 14.512ZM64.6979 0.048C64.0349 0.0614449 63.3789 0.187228 62.7579 0.42C62.2241 0.621021 61.7406 0.936001 61.3409 1.343C60.9336 1.74233 60.6185 2.22598 60.4179 2.76C60.1852 3.381 60.0594 4.03696 60.0459 4.7C60.0069 5.555 59.9979 5.827 59.9979 8C59.9979 10.173 60.0069 10.445 60.0459 11.3C60.0594 11.963 60.1852 12.619 60.4179 13.24C60.6186 13.774 60.9336 14.2576 61.3409 14.657C61.7407 15.0638 62.2243 15.3787 62.7579 15.58C63.3796 15.8129 64.0362 15.9387 64.6999 15.952C65.5529 15.99 65.8249 16 67.9979 16C70.1709 16 70.4429 15.991 71.2979 15.952C71.9616 15.9388 72.6183 15.813 73.2399 15.58C73.7715 15.3745 74.2542 15.0602 74.6572 14.6572C75.0601 14.2543 75.3744 13.7715 75.5799 13.24C75.8132 12.6185 75.939 11.9618 75.9519 11.298C75.9879 10.445 75.9979 10.173 75.9979 8C75.9979 5.827 75.9889 5.555 75.9499 4.7C75.9365 4.03695 75.8107 3.38099 75.5779 2.76C75.3766 2.22634 75.0617 1.74284 74.6549 1.343C74.2558 0.935898 73.7725 0.62089 73.2389 0.42C72.6177 0.186967 71.9613 0.0611776 71.2979 0.048C70.4439 0.01 70.1709 0 67.9979 0C65.8249 0 65.5529 0.009 64.6979 0.048Z" fill="url(#paint1_radial_5_161)"/>
<defs>
<radialGradient id="paint0_radial_5_161" cx="0" cy="0" r="1" gradientUnits="userSpaceOnUse" gradientTransform="translate(62.1259 16.08) scale(20.88)">
<stop offset="0.09" stop-color="#FA8F21"/>
<stop offset="0.78" stop-color="#D82D7E"/>
</radialGradient>
<radialGradient id="paint1_radial_5_161" cx="0" cy="0" r="1" gradientUnits="userSpaceOnUse" gradientTransform="translate(69.6939 16.8) scale(16.464)">
<stop offset="0.64" stop-color="#8C3AAA" stop-opacity="0"/>
<stop offset="1" stop-color="#8C3AAA"/>
</radialGradient>
</defs>
</svg>
