<svg width="112" height="30" viewBox="0 0 112 30" fill="none" xmlns="http://www.w3.org/2000/svg">
<path d="M24.1113 29.063H4.93506C3.62743 29.059 2.37483 28.5378 1.4502 27.6132C0.52556 26.6886 0.00395654 25.4356 0 24.128V4.95201C0.00422015 3.64456 0.525588 2.39187 1.4502 1.46745C2.3748 0.543033 3.6276 0.0219606 4.93506 0.0180054H24.1113C25.4187 0.0219619 26.6713 0.543066 27.5957 1.46751C28.5202 2.39196 29.0415 3.64465 29.0454 4.95201V24.128C29.0463 24.7762 28.919 25.4182 28.6714 26.0173C28.4238 26.6163 28.0604 27.1606 27.6021 27.6189C27.1437 28.0773 26.5995 28.4407 26.0005 28.6883C25.4015 28.9359 24.7595 29.0629 24.1113 29.062" fill="#8989A2"/>
<path d="M24.1104 0.00100708H14.5225V14.523H29.0444V4.935C29.0434 3.62648 28.5229 2.37186 27.5977 1.44659C26.6724 0.521332 25.4179 0.00105932 24.1094 0" fill="#A0A0BD"/>
<path d="M14.5225 29.063H24.1104C25.418 29.059 26.6711 28.5378 27.5957 27.6132C28.5203 26.6886 29.0415 25.4356 29.0454 24.128V14.54H14.5234L14.5225 29.063Z" fill="#BCBCD8"/>
<path d="M54.5103 18.605C54.5633 18.6058 54.6153 18.6174 54.6636 18.6391C54.7119 18.6608 54.7552 18.692 54.7911 18.731L55.5284 19.536C54.96 20.1957 54.2529 20.7222 53.4581 21.078C52.531 21.4694 51.5309 21.658 50.525 21.631C49.5909 21.644 48.6643 21.4674 47.8004 21.112C47.009 20.7822 46.2979 20.286 45.7154 19.657C45.1234 19.0059 44.668 18.2424 44.377 17.412C44.0509 16.4873 43.8897 15.5125 43.9009 14.532C43.8896 13.5486 44.0628 12.5717 44.4112 11.652C44.7295 10.8124 45.2163 10.0467 45.8414 9.402C46.4671 8.76737 47.218 8.27043 48.0469 7.943C48.9499 7.58854 49.9134 7.41228 50.8834 7.42399C51.7874 7.40192 52.6861 7.56352 53.5259 7.89899C54.2553 8.20847 54.9238 8.64529 55.5001 9.189L54.8892 10.052C54.847 10.1137 54.7943 10.1678 54.7339 10.212C54.6586 10.2588 54.5705 10.2808 54.482 10.275C54.3859 10.2713 54.2934 10.2392 54.2154 10.183C54.1214 10.121 54.0094 10.046 53.8814 9.95499C53.7534 9.86399 53.5994 9.76799 53.4244 9.66399C53.2264 9.54939 53.0189 9.45203 52.8043 9.37299C52.5332 9.27373 52.2542 9.19747 51.9703 9.145C51.609 9.07974 51.2422 9.04894 50.8751 9.053C50.1758 9.04449 49.4817 9.17466 48.8331 9.436C48.2281 9.68149 47.6825 10.0535 47.233 10.527C46.7712 11.025 46.4165 11.6124 46.191 12.253C45.9332 12.9847 45.8065 13.7562 45.817 14.532C45.8045 15.3206 45.9311 16.1053 46.191 16.85C46.4139 17.4852 46.7603 18.0701 47.21 18.571C47.6341 19.0359 48.1558 19.4016 48.7374 19.642C49.3397 19.8906 49.9857 20.016 50.6373 20.011C51.0102 20.0136 51.3826 19.9892 51.752 19.938C52.0647 19.8938 52.372 19.8174 52.669 19.71C52.9448 19.6093 53.2083 19.4775 53.4542 19.317C53.7123 19.1469 53.9569 18.9574 54.1861 18.75C54.2724 18.6632 54.3881 18.6115 54.5103 18.605Z" fill="#8989A2"/>
<path d="M59.6489 7.19098V21.475H57.9233V7.19098H59.6489Z" fill="#8989A2"/>
<path d="M66.584 11.4969C67.1414 11.4926 67.6945 11.5944 68.2139 11.797C68.6996 11.9864 69.1394 12.2772 69.5039 12.6499C69.8799 13.0447 70.1692 13.5137 70.353 14.0269C70.5634 14.6264 70.6648 15.2587 70.6528 15.894C70.6691 16.0794 70.6393 16.2659 70.5659 16.437C70.5274 16.4862 70.4768 16.5246 70.4189 16.5484C70.3611 16.5723 70.2979 16.5807 70.2358 16.573H63.6992C63.7008 17.1223 63.7857 17.6682 63.9512 18.192C64.0861 18.6139 64.3036 19.0045 64.5918 19.341C64.8564 19.6438 65.189 19.8798 65.562 20.03C65.9633 20.1868 66.391 20.2642 66.8218 20.258C67.2009 20.2657 67.5791 20.2151 67.9429 20.108C68.221 20.022 68.4917 19.9133 68.752 19.783C68.9469 19.6847 69.1364 19.5762 69.3198 19.4579C69.4336 19.3717 69.5697 19.3197 69.7119 19.308C69.7765 19.3052 69.841 19.3189 69.8989 19.3477C69.9568 19.3766 70.0063 19.4197 70.043 19.473L70.5269 20.103C70.3084 20.3663 70.0503 20.5938 69.7612 20.7769C69.4618 20.9688 69.1417 21.1265 68.8071 21.2469C68.4651 21.3703 68.1125 21.4627 67.7539 21.523C67.3985 21.5838 67.0388 21.6146 66.6782 21.615C66.0366 21.6217 65.3992 21.5049 64.8018 21.271C64.2392 21.0478 63.7327 20.7037 63.3179 20.263C62.8829 19.7883 62.5511 19.2285 62.3438 18.619C62.0997 17.8944 61.9821 17.1334 61.9951 16.369C61.9896 15.7157 62.0961 15.0663 62.3101 14.449C62.5059 13.8778 62.814 13.3518 63.2168 12.9019C63.6188 12.4596 64.1116 12.109 64.6611 11.8739C65.2689 11.6159 65.9237 11.4875 66.584 11.4969ZM66.6231 12.768C66.2631 12.748 65.9029 12.8018 65.5645 12.9259C65.2261 13.0501 64.9164 13.242 64.6548 13.49C64.1447 14.0399 63.8311 14.743 63.7622 15.49H69.106C69.1099 15.1168 69.0542 14.7455 68.9409 14.39C68.8393 14.0725 68.6744 13.7789 68.4561 13.5269C68.241 13.2836 67.9739 13.0916 67.6748 12.965C67.3413 12.828 66.9835 12.7609 66.6231 12.768Z" fill="#8989A2"/>
<path d="M80.0709 21.475H79.3038C79.1643 21.4806 79.0255 21.454 78.898 21.397C78.8411 21.3616 78.7931 21.3133 78.7584 21.2559C78.7236 21.1986 78.7029 21.1339 78.6978 21.067L78.505 20.155C78.2463 20.3877 77.9941 20.5963 77.7481 20.781C77.5064 20.9626 77.2459 21.1184 76.9718 21.246C76.6947 21.3742 76.4041 21.4702 76.1051 21.532C75.7684 21.6005 75.4257 21.634 75.0821 21.632C74.7189 21.6344 74.3573 21.5801 74.0108 21.471C73.6916 21.3714 73.3965 21.2073 73.1432 20.989C72.8899 20.765 72.689 20.4877 72.5558 20.177C72.4024 19.8089 72.3284 19.4126 72.338 19.014C72.3399 18.6171 72.4504 18.2283 72.6578 17.89C72.9148 17.4878 73.2702 17.1578 73.69 16.931C74.2749 16.6111 74.9038 16.3799 75.5567 16.245C76.4845 16.0506 77.4313 15.9607 78.379 15.977V15.206C78.423 14.586 78.2495 13.9701 77.8888 13.464C77.7082 13.2614 77.4839 13.1029 77.2325 13.0006C76.9812 12.8983 76.7098 12.855 76.4391 12.874C76.0784 12.8643 75.7189 12.9185 75.377 13.034C75.1163 13.1275 74.8659 13.2478 74.63 13.393C74.42 13.5263 74.239 13.646 74.087 13.752C73.9573 13.8508 73.7998 13.9068 73.6368 13.912C73.5276 13.9145 73.4208 13.8823 73.3311 13.82C73.2453 13.7609 73.1741 13.6829 73.1231 13.592L72.8111 13.039C73.317 12.5404 73.9127 12.1424 74.567 11.866C75.2296 11.6006 75.9382 11.4687 76.6519 11.478C77.1532 11.4688 77.651 11.561 78.1158 11.749C78.5262 11.9185 78.8941 12.1766 79.193 12.505C79.4926 12.8452 79.717 13.2449 79.8512 13.678C80.0051 14.1674 80.0803 14.678 80.0748 15.191L80.0709 21.475ZM75.5909 20.418C75.8716 20.4207 76.1516 20.3899 76.4249 20.326C76.6719 20.2667 76.9111 20.1788 77.1378 20.064C77.3647 19.9485 77.5796 19.8104 77.7789 19.652C77.992 19.4824 78.1926 19.2976 78.379 19.099V17.072C77.7002 17.0628 77.0221 17.1133 76.3521 17.223C75.8851 17.2975 75.4288 17.4302 74.9947 17.618C74.6956 17.7416 74.4335 17.9399 74.233 18.194C74.0764 18.4091 73.9929 18.6689 73.9957 18.935C73.9901 19.1657 74.0335 19.395 74.1222 19.608C74.1983 19.7864 74.3145 19.9449 74.462 20.071C74.6078 20.1935 74.7784 20.2833 74.962 20.334C75.1664 20.3911 75.3777 20.4194 75.5899 20.418H75.5909Z" fill="#8989A2"/>
<path d="M82.6899 21.475V11.652H83.6792C83.8174 11.6373 83.9558 11.6755 84.0669 11.759C84.1524 11.864 84.2034 11.9929 84.2129 12.128L84.3291 13.66C84.6173 13.0388 85.0435 12.4916 85.5752 12.06C86.0725 11.6743 86.6867 11.4707 87.3159 11.483C87.5646 11.4801 87.8129 11.511 88.0532 11.575C88.267 11.6342 88.4722 11.7206 88.6641 11.832L88.4409 13.122C88.4288 13.1919 88.3921 13.255 88.3369 13.2995C88.2817 13.3441 88.212 13.367 88.1411 13.364C87.9984 13.3534 87.858 13.3224 87.7241 13.272C87.4683 13.2018 87.2031 13.1708 86.938 13.18C86.3881 13.162 85.8512 13.3487 85.4312 13.704C84.9783 14.1244 84.631 14.646 84.418 15.226V21.481L82.6899 21.475Z" fill="#8989A2"/>
<path d="M90.5652 21.475V7.19098H92.3V13.068C92.694 12.6068 93.1682 12.2209 93.7 11.929C94.2566 11.6339 94.8792 11.4852 95.509 11.497C96.04 11.4892 96.5661 11.5985 97.05 11.817C97.514 12.0339 97.9175 12.3619 98.2244 12.772C98.5707 13.2436 98.8238 13.7767 98.9709 14.343C99.1558 15.0471 99.2441 15.7731 99.2332 16.501C99.2391 17.1858 99.1409 17.8676 98.9421 18.523C98.7671 19.1108 98.4826 19.6601 98.1033 20.142C97.7417 20.5945 97.285 20.9619 96.7654 21.218C96.2108 21.4861 95.601 21.6207 94.9851 21.611C94.4247 21.628 93.8696 21.5009 93.3723 21.242C92.9169 20.9858 92.5213 20.6353 92.2122 20.214L92.1252 21.106C92.1136 21.2133 92.0604 21.3118 91.9773 21.3807C91.8942 21.4496 91.788 21.4834 91.6804 21.475H90.5652ZM94.948 12.875C94.4284 12.8637 93.9161 12.9981 93.469 13.263C93.0137 13.5526 92.6174 13.9258 92.301 14.363V19.115C92.5622 19.4984 92.9178 19.8083 93.3333 20.015C93.7311 20.1936 94.1633 20.283 94.5994 20.277C95.0049 20.2989 95.4096 20.2211 95.7781 20.0504C96.1466 19.8798 96.4675 19.6214 96.7131 19.298C97.254 18.471 97.5124 17.4911 97.45 16.505C97.4592 15.9505 97.4022 15.3969 97.28 14.856C97.191 14.4513 97.0248 14.0676 96.7903 13.726C96.592 13.4437 96.3205 13.2207 96.0051 13.081C95.6698 12.9385 95.3083 12.868 94.9441 12.874L94.948 12.875Z" fill="#8989A2"/>
<path d="M103.655 8.57299C103.657 8.73514 103.623 8.89569 103.555 9.04299C103.488 9.18698 103.396 9.31825 103.284 9.43099C103.171 9.54415 103.038 9.63476 102.891 9.69799C102.741 9.76405 102.579 9.79811 102.415 9.798C102.253 9.79868 102.093 9.76457 101.945 9.69799C101.8 9.63417 101.669 9.54359 101.557 9.43099C101.444 9.31948 101.353 9.18789 101.289 9.04299C101.223 8.89513 101.189 8.73496 101.189 8.57299C101.189 8.40787 101.224 8.24456 101.289 8.09299C101.352 7.9435 101.443 7.80764 101.557 7.693C101.669 7.58055 101.8 7.48999 101.945 7.426C102.093 7.35954 102.253 7.32543 102.415 7.326C102.579 7.326 102.741 7.36006 102.891 7.426C103.038 7.4894 103.171 7.58 103.284 7.693C103.398 7.80884 103.49 7.94436 103.555 8.09299C103.622 8.24401 103.657 8.40768 103.655 8.57299ZM103.268 11.657V21.48H101.54V11.657H103.268Z" fill="#8989A2"/>
<path d="M109.289 21.63C108.962 21.6514 108.634 21.6047 108.326 21.4928C108.018 21.3809 107.737 21.2063 107.5 20.98C107.053 20.463 106.828 19.7901 106.874 19.1079V13.096H105.691C105.595 13.0989 105.502 13.0661 105.429 13.004C105.391 12.967 105.362 12.9222 105.344 12.8728C105.325 12.8234 105.318 12.7705 105.323 12.7179V12.03L106.932 11.8299L107.332 8.79496C107.342 8.70253 107.387 8.61745 107.458 8.55695C107.534 8.49391 107.63 8.46115 107.729 8.46496H108.603V11.85H111.416V13.101H108.604V19.001C108.591 19.1667 108.61 19.3335 108.662 19.4916C108.713 19.6497 108.795 19.796 108.904 19.922C109.006 20.0222 109.127 20.1006 109.261 20.1522C109.394 20.2038 109.537 20.2275 109.68 20.222C109.839 20.2253 109.998 20.2006 110.149 20.1489C110.268 20.1067 110.383 20.0532 110.493 19.989C110.59 19.9303 110.672 19.877 110.74 19.829C110.791 19.787 110.854 19.7615 110.92 19.756C110.971 19.7603 111.02 19.7778 111.063 19.8067C111.106 19.8356 111.14 19.8749 111.163 19.921L111.663 20.745C111.351 21.0323 110.985 21.2549 110.587 21.4C110.172 21.5545 109.732 21.6325 109.289 21.63Z" fill="#8989A2"/>
</svg>
