<svg width="152" height="31" viewBox="0 0 152 31" fill="none" xmlns="http://www.w3.org/2000/svg">
<path d="M18.712 12.436C19.528 12.994 20.3598 13.521 21.1328 14.152C22.0395 14.9742 22.7347 16.0028 23.1597 17.1506C23.5847 18.2985 23.7269 19.5318 23.5743 20.7462C23.4216 21.9606 22.9786 23.1204 22.2828 24.1273C21.5869 25.1343 20.6587 25.9588 19.5767 26.531C17.6863 27.4418 15.6099 27.8999 13.5118 27.869C9.24675 27.894 4.98095 27.869 0.71195 27.888C0.18295 27.888 -0.00296435 27.771 3.56537e-05 27.204C0.0210357 22.26 -0.000339348 17.316 0.0156607 12.372C0.0011937 11.4434 0.355169 10.547 1.00004 9.87866C1.6449 9.21037 2.52856 8.82469 3.45707 8.80603C4.14907 8.71203 4.85707 8.75102 5.54007 8.60602C8.99973 9.05916 12.3987 9.8922 15.6758 11.09C16.4091 11.3607 17.1403 11.6337 17.8697 11.909C18.2051 11.9765 18.5047 12.1638 18.712 12.436Z" fill="#00DCC0"/>
<path d="M18.712 12.436C16.1529 11.4117 13.5323 10.5481 10.8658 9.84996C9.1418 9.47296 7.43081 9.03197 5.67781 8.80797C5.44481 8.63897 5.06903 8.877 4.89803 8.533C4.16903 8.333 3.43799 8.13298 2.71199 7.92198C1.93945 7.73678 1.25386 7.29247 0.769122 6.66307C0.284382 6.03367 0.0297002 5.25721 0.0479301 4.46299C-0.0140699 3.13199 0.0272153 1.79699 0.0152153 0.462995C0.0152153 0.193995 0.0437973 0.0169689 0.386797 0.0239688C5.5098 0.123969 10.6379 -0.192005 15.7559 0.212995C16.6691 0.290924 17.5652 0.508799 18.4122 0.858991C21.5822 2.14799 22.4262 4.93398 22.0782 7.82798C21.9611 8.82078 21.5893 9.76652 20.9996 10.5738C20.4099 11.381 19.6221 12.0224 18.712 12.436Z" fill="#125EEC"/>
<path d="M79.4338 3.93499C80.4763 3.95536 81.5019 4.20329 82.4386 4.66137C83.3754 5.11945 84.2009 5.77667 84.8571 6.58703C85.362 7.25362 85.7168 8.02147 85.8971 8.83801C85.9971 9.23201 85.8837 9.38698 85.4777 9.47198C84.6074 9.64475 83.7478 9.86581 82.902 10.134C82.426 10.29 82.292 10.134 82.11 9.734C81.8848 9.25535 81.5658 8.82675 81.172 8.4735C80.7783 8.12026 80.3178 7.84953 79.8175 7.67742C79.3173 7.50531 78.7877 7.43526 78.2599 7.47143C77.7322 7.5076 77.2168 7.64925 76.7448 7.88799C76.4342 8.03188 76.1733 8.26479 75.9953 8.55712C75.8172 8.84945 75.7301 9.18806 75.7448 9.53002C75.7504 9.85937 75.8586 10.1787 76.0544 10.4437C76.2501 10.7086 76.5239 10.9059 76.8371 11.008C78.8371 11.918 80.996 12.392 82.964 13.361C84.2664 13.8656 85.3556 14.8026 86.049 16.015C86.6826 17.3838 86.7568 18.9459 86.256 20.3687C85.7553 21.7915 84.7191 22.9627 83.3678 23.633C81.8939 24.4485 80.2126 24.8125 78.5334 24.6797C76.8541 24.5469 75.2514 23.9231 73.924 22.886C73.1809 22.3024 72.5662 21.5717 72.1188 20.7395C71.6714 19.9073 71.4009 18.9917 71.3239 18.05C71.2779 17.717 71.3368 17.524 71.7238 17.45C72.7488 17.25 73.7739 17.05 74.7799 16.773C75.2389 16.649 75.3087 16.827 75.3747 17.191C75.4465 17.6276 75.557 18.0569 75.7048 18.474C76.5218 20.663 77.8529 21.419 80.1549 21.008C80.6201 20.9417 81.0741 20.8122 81.5041 20.623C81.8748 20.486 82.194 20.2383 82.4191 19.9134C82.6442 19.5885 82.764 19.2022 82.7619 18.807C82.7846 18.3999 82.6882 17.9951 82.484 17.6421C82.2799 17.2891 81.9771 17.0034 81.613 16.82C80.3473 16.143 79.0067 15.6161 77.6188 15.25C76.3441 14.8687 75.1357 14.2937 74.0358 13.545C71.2608 11.754 71.3358 7.43404 74.0158 5.40704C75.3528 4.38604 76.8188 3.89999 79.4338 3.93499Z" fill="#101419"/>
<path d="M125.317 10.734C127.238 8.78301 129.363 8.27797 131.724 9.28797C132.641 9.66374 133.42 10.3138 133.954 11.1492C134.487 11.9846 134.75 12.9646 134.706 13.955C134.764 17.195 134.713 20.438 134.728 23.679C134.728 24.088 134.622 24.224 134.205 24.21C133.343 24.18 132.478 24.174 131.617 24.21C131.149 24.231 131.063 24.057 131.065 23.63C131.083 20.912 131.075 18.193 131.074 15.474C131.074 15.265 131.082 15.055 131.065 14.848C130.911 13.07 130.059 12.161 128.602 12.216C126.515 12.295 125.502 13.227 125.493 15.116C125.481 17.916 125.476 20.71 125.503 23.507C125.503 24.032 125.412 24.244 124.835 24.207C123.975 24.154 123.109 24.172 122.247 24.207C121.826 24.222 121.724 24.076 121.725 23.671C121.739 19.0443 121.739 14.4176 121.725 9.79096C121.725 9.39096 121.825 9.23596 122.249 9.25196C123.006 9.29519 123.765 9.29321 124.522 9.24598C125.17 9.19298 125.44 9.38096 125.322 10.046C125.304 10.2749 125.302 10.5049 125.317 10.734Z" fill="#101419"/>
<path d="M108.545 10.758C109.645 9.18401 110.905 8.55796 112.594 8.94496C112.989 9.03396 113.103 9.18598 113.025 9.58698C112.86 10.431 112.719 11.287 112.614 12.136C112.567 12.529 112.48 12.657 112.041 12.592C109.941 12.283 108.874 13.148 108.817 15.305C108.746 18.02 108.757 20.738 108.784 23.454C108.79 24.087 108.602 24.254 108 24.214C107.167 24.163 106.328 24.187 105.492 24.208C105.152 24.217 105.047 24.116 105.047 23.769C105.058 19.041 105.058 14.3127 105.047 9.58399C105.047 9.21399 105.147 9.08396 105.526 9.09596C106.309 9.12296 107.096 9.14196 107.877 9.09596C108.436 9.05996 108.63 9.24096 108.552 9.78596C108.53 10.1095 108.528 10.4341 108.545 10.758Z" fill="#101419"/>
<path d="M52.4561 16.8089C52.4561 19.0579 52.4423 21.309 52.4673 23.556C52.4723 24.046 52.375 24.245 51.835 24.214C50.975 24.165 50.1091 24.182 49.2471 24.214C48.8371 24.227 48.7153 24.1 48.7163 23.685C48.7303 19.0563 48.7303 14.428 48.7163 9.79997C48.7163 9.39997 48.8162 9.24595 49.2402 9.25895C50.1292 9.28595 51.0202 9.29195 51.9072 9.25895C52.3662 9.24095 52.4669 9.40497 52.4639 9.83397C52.4459 12.154 52.4561 14.4809 52.4561 16.8089Z" fill="#101419"/>
<path d="M118.449 16.76C118.449 19.009 118.432 21.26 118.461 23.508C118.467 24.028 118.376 24.252 117.794 24.214C116.96 24.16 116.121 24.182 115.284 24.208C114.891 24.22 114.743 24.126 114.746 23.697C114.766 19.0677 114.771 14.438 114.761 9.80798C114.761 9.35398 114.905 9.23601 115.338 9.25201C116.174 9.28401 117.014 9.29001 117.849 9.25201C118.33 9.22901 118.466 9.36399 118.46 9.85199C118.432 12.156 118.449 14.458 118.449 16.76Z" fill="#101419"/>
<path d="M50.6284 6.96098C48.7284 6.96098 48.7285 6.961 48.7285 5.072C48.7285 3.507 48.7285 3.50195 50.3345 3.50895C51.0095 3.50895 51.8816 3.28897 52.3076 3.62297C52.7606 3.97997 52.4416 4.892 52.4536 5.559C52.4776 6.959 52.4604 6.95897 51.0254 6.95897L50.6284 6.96098Z" fill="#11151A"/>
<path d="M116.673 3.50702C118.449 3.50702 118.449 3.50702 118.448 5.29102C118.448 6.96102 118.448 6.97602 116.81 6.95502C116.141 6.94602 115.251 7.25503 114.866 6.81403C114.539 6.44003 114.766 5.57301 114.766 4.92401C114.766 3.50801 114.766 3.508 116.203 3.508L116.673 3.50702Z" fill="#101419"/>
<path d="M4.89746 8.53296C5.14746 8.65096 5.45973 8.59698 5.67773 8.80798H3.46143C3.89343 8.47298 4.45746 8.83196 4.89746 8.53296Z" fill="#59D4DC"/>
<path d="M43.4903 13.444C43.9856 13.106 44.4241 12.6919 44.7901 12.217C45.2597 11.534 45.5368 10.7373 45.5924 9.9103C45.648 9.08333 45.48 8.25666 45.106 7.51698C44.7448 6.65227 44.149 5.90584 43.3858 5.36208C42.6226 4.81832 41.7225 4.49895 40.7872 4.44002C37.7872 4.18102 34.777 4.39199 31.772 4.33199C31.255 4.32199 31.254 4.57398 31.255 4.95198C31.2636 8.16732 31.2657 11.3823 31.2603 14.597C31.2603 17.603 31.2619 20.609 31.2652 23.615C31.2652 23.86 31.1052 24.215 31.6202 24.207C34.8582 24.126 38.1081 24.457 41.3341 24.024C42.5224 23.8767 43.6339 23.3574 44.5093 22.5404C45.3848 21.7233 45.9792 20.6504 46.2081 19.475C46.7351 16.774 45.9093 14.936 43.4903 13.444ZM35.7193 7.84401C36.9743 7.86401 38.2309 7.83098 39.4859 7.86098C39.788 7.83491 40.0924 7.87416 40.378 7.97609C40.6636 8.07802 40.9238 8.24022 41.1412 8.45168C41.3585 8.66313 41.528 8.91893 41.6378 9.20162C41.7475 9.4843 41.7947 9.78727 41.7769 10.09C41.7927 10.3917 41.7433 10.6933 41.6319 10.9741C41.5205 11.255 41.3498 11.5085 41.1314 11.7174C40.9131 11.9262 40.6523 12.0855 40.3668 12.1843C40.0812 12.2831 39.7778 12.3192 39.4771 12.29C38.8771 12.308 38.2773 12.29 37.6773 12.29C37.0233 12.29 36.3684 12.269 35.7164 12.298C35.3164 12.316 35.1673 12.216 35.1783 11.786C35.2083 10.636 35.2103 9.48598 35.1783 8.33498C35.1573 7.89398 35.3423 7.83697 35.7193 7.84297V7.84401ZM40.3331 20.459C39.5551 20.514 38.7704 20.469 37.9874 20.469V20.51C37.2304 20.51 36.4734 20.496 35.7174 20.516C35.3454 20.526 35.158 20.465 35.169 20.016C35.2 18.634 35.191 17.251 35.169 15.869C35.169 15.503 35.2601 15.369 35.6451 15.379C37.1841 15.404 38.7253 15.364 40.2633 15.411C40.5711 15.4089 40.8759 15.4686 41.1602 15.5866C41.4445 15.7046 41.7026 15.8785 41.9185 16.0979C42.1344 16.3173 42.3037 16.5778 42.4171 16.864C42.5304 17.1502 42.5853 17.4563 42.5782 17.764C42.6032 19.455 41.8811 20.35 40.3331 20.463V20.459Z" fill="#101419"/>
<path d="M151.095 9.39003C150.695 9.04903 149.808 9.26903 149.135 9.26503C147.747 9.25603 147.747 9.26507 147.546 10.5811C147.257 10.2882 146.952 10.0121 146.632 9.75404C145.496 9.04876 144.159 8.73623 142.829 8.86451C141.498 8.9928 140.246 9.5548 139.266 10.4641C136.146 13.3921 136.201 18.5091 137.861 21.3261C139.971 24.9061 144.798 25.796 147.467 22.815C147.467 23.485 147.467 24.075 147.467 24.666C147.514 25.0785 147.469 25.4963 147.335 25.8892C147.201 26.2822 146.981 26.6405 146.692 26.9385C146.403 27.2366 146.052 27.4668 145.664 27.6126C145.275 27.7585 144.858 27.8164 144.445 27.7821C143.64 27.8113 142.846 27.5941 142.168 27.1594C141.491 26.7248 140.962 26.0935 140.653 25.35C140.147 25.69 139.692 25.9931 139.238 26.3001C137.723 27.3261 137.708 27.486 138.992 28.854C139.028 28.892 139.067 28.9271 139.104 28.9641C139.847 29.664 140.727 30.2025 141.688 30.5455C142.649 30.8885 143.672 31.0286 144.69 30.957C145.554 30.9847 146.415 30.8351 147.219 30.5173C148.024 30.1996 148.755 29.7205 149.367 29.1095C149.979 28.4985 150.459 27.7687 150.778 26.9649C151.097 26.1611 151.249 25.3005 151.223 24.436C151.223 20.0707 151.221 15.7041 151.218 11.3361C151.217 10.6661 151.516 9.75103 151.095 9.39003ZM147.501 15.4151C147.484 15.8581 147.501 16.303 147.501 16.747C147.501 17.191 147.506 17.6351 147.501 18.0791C147.554 18.7223 147.395 19.3653 147.047 19.9094C146.7 20.4534 146.183 20.8685 145.578 21.091C144.949 21.3577 144.255 21.4336 143.583 21.3092C142.912 21.1847 142.291 20.8654 141.8 20.3911C140.01 18.7631 140.02 14.34 142.008 12.876C142.517 12.4612 143.132 12.198 143.784 12.1165C144.436 12.0349 145.097 12.1384 145.693 12.4151C146.28 12.6496 146.775 13.0696 147.101 13.6112C147.427 14.1528 147.568 14.7863 147.501 15.4151Z" fill="#101419"/>
<path d="M69.1457 9.71001C69.1457 9.29201 68.9661 9.24601 68.6291 9.25701C68.0541 9.27601 67.479 9.26202 66.903 9.26202C65.665 9.26202 65.6658 9.262 65.5978 10.492C65.5978 10.52 65.527 10.544 65.486 10.572C65.1971 10.2749 64.8909 9.99504 64.569 9.734C62.464 8.209 59.0559 8.65802 57.0929 10.595C54.2069 13.444 54.1006 18.332 55.7926 21.276C57.9466 25.017 62.842 25.731 65.446 22.776C65.446 23.645 65.4741 24.347 65.4401 25.045C65.4463 25.6404 65.2491 26.2202 64.881 26.6882C64.513 27.1563 63.9958 27.4846 63.4157 27.619C62.7266 27.8409 61.989 27.8633 61.2878 27.6835C60.5865 27.5037 59.9502 27.1291 59.4528 26.603C59.0938 26.241 58.9878 25.467 58.4948 25.503C58.0178 25.54 57.5757 26.048 57.1227 26.356C55.6117 27.381 55.597 27.556 56.881 28.891C56.917 28.929 56.9548 28.964 56.9928 29.001C57.8111 29.758 58.7871 30.3245 59.8503 30.6597C60.9134 30.995 62.0372 31.0907 63.1418 30.94C64.7162 30.8907 66.2119 30.2395 67.3205 29.1205C68.4291 28.0014 69.0662 26.4999 69.1007 24.925C69.2017 19.855 69.1297 14.782 69.1457 9.71001ZM65.4806 16.675H65.4709C65.4709 17.223 65.501 17.775 65.465 18.32C65.4671 18.9405 65.2726 19.5457 64.9093 20.0488C64.5461 20.5518 64.0327 20.9269 63.443 21.12C62.8347 21.3733 62.1653 21.4419 61.5182 21.3174C60.8711 21.193 60.2748 20.8809 59.8039 20.42C57.9039 18.62 57.9326 14.64 59.8546 12.965C60.3506 12.5118 60.9692 12.2148 61.633 12.1111C62.2967 12.0074 62.9766 12.1017 63.5871 12.382C64.1942 12.6087 64.7093 13.0294 65.0529 13.5789C65.3964 14.1284 65.5491 14.7759 65.487 15.421C65.471 15.839 65.4806 16.257 65.4806 16.675Z" fill="#101419"/>
<path d="M102.247 13.459C101.911 12.2774 101.24 11.2181 100.316 10.4087C99.3924 9.59927 98.2541 9.07432 97.0386 8.89702C96.1011 8.71233 95.1316 8.77782 94.2275 9.08696C93.3235 9.39611 92.5168 9.93799 91.8887 10.658C91.8739 10.4546 91.8739 10.2504 91.8887 10.047C92.0107 9.38399 91.7389 9.189 91.0889 9.247C90.4103 9.30091 89.7284 9.30091 89.0498 9.247C88.5118 9.21 88.3496 9.35399 88.3496 9.92199C88.3709 16.566 88.3709 23.21 88.3496 29.854C88.3496 30.382 88.4498 30.605 89.0288 30.564C89.7607 30.4998 90.4966 30.4998 91.2285 30.564C91.9605 30.641 92.075 30.353 92.064 29.698C92.023 27.437 92.0479 25.175 92.0479 22.88C92.1679 22.928 92.2269 22.933 92.2529 22.965C94.2429 25.431 98.8946 25.14 101.039 22.221C101.97 20.9844 102.57 19.5304 102.781 17.9969C102.993 16.4635 102.808 14.9014 102.247 13.459ZM97.6855 20.469C97.1952 20.9293 96.5785 21.2324 95.9146 21.3393C95.2506 21.4462 94.57 21.3521 93.96 21.069C93.3801 20.8502 92.8842 20.4538 92.543 19.9365C92.2018 19.4191 92.0323 18.8071 92.0596 18.188C92.0456 17.688 92.0596 17.196 92.0596 16.699C92.0596 16.281 92.0596 15.863 92.0596 15.445C92.007 14.7617 92.1835 14.0803 92.561 13.5083C92.9386 12.9363 93.4956 12.5063 94.1445 12.286C94.8162 12.059 95.5392 12.0316 96.2261 12.2071C96.9129 12.3827 97.5343 12.7536 98.0146 13.275C99.6126 15.082 99.4655 18.849 97.6855 20.468V20.469Z" fill="#101419"/>
</svg>
