<svg width="86" height="30" viewBox="0 0 86 30" fill="none" xmlns="http://www.w3.org/2000/svg">
<path fill-rule="evenodd" clip-rule="evenodd" d="M21.1433 16.6216C21.0637 16.8368 21.0425 17.0693 21.0819 17.2953C21.1212 17.5213 21.2197 17.7329 21.3673 17.9086C21.5359 18.0376 21.7307 18.128 21.938 18.1736C22.1453 18.2192 22.3601 18.2189 22.5673 18.1726C23.3945 17.9921 24.2515 17.9979 25.0763 18.1896C25.2874 18.2812 25.476 18.4179 25.6288 18.59C25.7817 18.7621 25.895 18.9655 25.961 19.186C26.0271 19.4065 26.0441 19.6387 26.011 19.8665C25.9778 20.0943 25.8953 20.3121 25.7692 20.5046C25.4406 21.0468 25.0327 21.5369 24.5592 21.9586C23.0537 23.708 21.732 25.6077 20.6153 27.6276C20.1223 28.4276 19.4693 29.4936 18.4313 29.5996C17.963 29.6672 17.4866 29.5555 17.0972 29.2868C16.7078 29.0181 16.4343 28.6123 16.3313 28.1506C16.1903 27.1716 17.1373 26.2376 17.7833 25.5946C18.2373 25.1406 18.6612 24.6726 19.0833 24.1846C19.5763 23.6206 20.0423 23.0586 20.4833 22.4596C20.9983 21.7596 21.8542 20.6136 21.2222 19.7486C20.7642 19.1126 19.7903 19.2236 19.1543 19.4776C18.344 19.8604 17.6479 20.4486 17.1353 21.1836C16.5769 22.0084 16.0673 22.8652 15.6093 23.7496C15.2507 24.4802 14.7338 25.1218 14.0963 25.6276C13.7698 25.8392 13.3757 25.9199 12.9924 25.8538C12.6091 25.7876 12.2648 25.5794 12.0283 25.2706C11.8451 24.8889 11.7711 24.464 11.8146 24.0429C11.858 23.6218 12.0171 23.2209 12.2743 22.8846C12.6712 22.297 13.1354 21.7577 13.6573 21.2776C14.4383 20.4776 15.2303 19.6826 15.9893 18.8596C16.3693 18.4376 16.7463 18.0216 17.0893 17.5876C17.4003 17.1876 17.8683 16.6636 17.7303 16.1086C17.4693 15.0636 15.8173 15.4426 15.1423 15.7736C14.1917 16.3188 13.3494 17.034 12.6573 17.8836C11.9038 18.7541 11.2159 19.6793 10.5993 20.6516C9.29325 22.5986 8.08725 24.6256 6.73925 26.5426C6.17725 27.3426 5.50725 28.3096 4.47925 28.5146C4.23177 28.5668 3.97604 28.5659 3.72892 28.512C3.4818 28.4582 3.2489 28.3525 3.04557 28.2021C2.84224 28.0517 2.67309 27.8599 2.54928 27.6394C2.42546 27.4188 2.34979 27.1745 2.32725 26.9226C2.32041 26.0127 2.65471 25.1332 3.26425 24.4576C3.73092 23.851 4.20759 23.2536 4.69425 22.6656C5.99425 21.0926 7.30425 19.5176 8.63825 17.9826C9.76925 16.6666 10.8563 15.3206 11.9193 13.9376C12.5193 13.1436 13.1323 12.3626 13.6843 11.5376C14.1573 10.7224 14.7661 9.99399 15.4843 9.38362C15.7898 9.12128 16.1701 8.9616 16.5713 8.92715C16.9725 8.8927 17.3745 8.98521 17.7203 9.19162C18.5533 9.83762 18.1423 11.0356 17.7963 11.8196C17.4503 12.6036 17.1183 13.5896 18.1123 13.9666C18.8123 14.2376 19.5913 14.0206 20.2763 14.3666C20.6606 14.5839 20.9578 14.9276 21.1173 15.3392C21.2769 15.7509 21.2888 16.2051 21.1513 16.6246" fill="#8989A2"/>
<path fill-rule="evenodd" clip-rule="evenodd" d="M7.27826 16.6856C8.9027 14.3263 10.6634 12.0638 12.5513 9.9096C14.1463 8.0926 15.8293 6.3526 17.4813 4.5806C18.1387 3.95951 18.5418 3.11625 18.6123 2.2146C18.6278 1.9943 18.5969 1.77319 18.5215 1.56558C18.4462 1.35797 18.3282 1.16849 18.175 1.00938C18.0218 0.850278 17.837 0.725095 17.6324 0.641933C17.4278 0.55877 17.208 0.51948 16.9873 0.526603C16.5219 0.606807 16.0796 0.787242 15.6909 1.0554C15.3022 1.32356 14.9765 1.67304 14.7363 2.0796C14.0983 2.8966 13.5513 3.7786 12.9783 4.6366C12.4313 5.4476 11.8153 6.2046 11.2333 6.9906C10.5923 7.8656 9.97126 8.7606 9.26126 9.5736C8.70926 10.1976 8.00126 11.3166 7.04326 11.2986C6.87254 11.2913 6.70795 11.2328 6.57083 11.1308C6.43372 11.0288 6.3304 10.888 6.27426 10.7266C6.20481 10.5176 6.19097 10.294 6.23411 10.078C6.27724 9.86201 6.37586 9.66094 6.52026 9.4946C6.96855 8.86556 7.46754 8.27426 8.01226 7.7266C8.58104 7.25731 9.06331 6.69213 9.43726 6.0566C9.57322 5.73871 9.61828 5.38932 9.56743 5.04734C9.51659 4.70535 9.37182 4.38419 9.14926 4.1196C9.01186 3.95233 8.82989 3.82739 8.62442 3.75926C8.41895 3.69112 8.19839 3.68257 7.98826 3.7346C7.49526 3.8776 7.15526 4.3726 6.75626 4.6466C6.49026 4.8266 5.93526 4.9896 5.77026 4.5926C5.60526 4.1956 6.09826 3.8066 6.31526 3.5846C6.91526 2.9656 7.97826 2.3266 8.03926 1.3786C8.04504 1.15444 7.99463 0.932397 7.89264 0.732698C7.79065 0.532999 7.64031 0.361992 7.45533 0.235255C7.27034 0.108519 7.05659 0.0300803 6.83353 0.00708565C6.61048 -0.015909 6.38521 0.0172709 6.17826 0.103603C5.30846 0.471003 4.57869 1.10653 4.09526 1.9176C3.62926 2.5786 2.81826 3.7366 3.12626 4.5896C3.20196 4.77458 3.32764 4.93485 3.48923 5.05247C3.65083 5.17009 3.84197 5.24043 4.04126 5.2556C4.46526 5.3226 5.05226 5.0906 5.42426 5.3396C6.26926 5.9066 5.23426 7.2646 4.85226 7.8046C4.25861 8.62952 3.5984 9.40444 2.87826 10.1216C2.12426 10.8806 1.28626 11.6006 0.608263 12.4216C0.295753 12.7236 0.0904813 13.1195 0.02369 13.549C-0.0431013 13.9784 0.0322458 14.4179 0.238263 14.8006C0.375054 14.9839 0.552442 15.133 0.756521 15.2363C0.9606 15.3396 1.18582 15.3942 1.41454 15.3958C1.64325 15.3975 1.86924 15.3461 2.07479 15.2458C2.28033 15.1455 2.45985 14.9989 2.59926 14.8176C3.1496 13.9884 3.7539 13.1964 4.40826 12.4466C4.55873 12.2889 4.74767 12.173 4.95649 12.1104C5.16531 12.0478 5.38683 12.0406 5.59926 12.0896C5.70548 12.1294 5.80268 12.1901 5.88517 12.2679C5.96767 12.3458 6.03381 12.4393 6.07972 12.5431C6.12563 12.6468 6.15038 12.7587 6.15254 12.8721C6.15469 12.9855 6.1342 13.0982 6.09226 13.2036C5.69495 14.1346 5.0813 14.9573 4.30226 15.6036C3.60226 16.3426 2.82326 16.9786 2.14026 17.7116C1.80868 18.0293 1.54596 18.4118 1.36843 18.8354C1.1909 19.2589 1.10234 19.7144 1.10826 20.1736C1.12788 20.4074 1.20356 20.6329 1.3289 20.8312C1.45423 21.0295 1.62553 21.1946 1.82826 21.3126C2.24027 21.468 2.69015 21.4928 3.11672 21.3834C3.54328 21.2741 3.92581 21.036 4.21226 20.7016C5.13242 19.7455 5.94648 18.6927 6.64026 17.5616L7.27826 16.6856Z" fill="#8989A2"/>
<path fill-rule="evenodd" clip-rule="evenodd" d="M24.8201 3.98359C24.3271 4.49659 23.7801 4.96959 23.2791 5.46259C22.7781 5.95559 22.0471 6.71459 22.2791 7.48359C22.3464 7.64368 22.4518 7.78483 22.5863 7.89465C22.7208 8.00448 22.8802 8.07962 23.0505 8.11348C23.2208 8.14734 23.3968 8.13889 23.5631 8.08887C23.7293 8.03885 23.8808 7.94879 24.0041 7.82659C24.5731 7.33359 25.0541 6.55259 25.9191 6.77859C26.282 6.92401 26.5758 7.20234 26.7406 7.55686C26.9055 7.91138 26.9289 8.3154 26.8061 8.68659C26.5499 9.41889 26.0899 10.0628 25.4801 10.5426C24.8842 11.1519 24.3568 11.8246 23.9071 12.5486C23.5521 13.1226 23.1821 13.7196 22.4281 13.7806C22.0852 13.7788 21.7534 13.6583 21.4892 13.4396C21.225 13.2208 21.0448 12.9172 20.9791 12.5806C20.9344 12.1723 20.9855 11.7593 21.1284 11.3743C21.2713 10.9893 21.502 10.6428 21.8021 10.3626C22.2021 9.86959 22.6921 9.11759 22.0931 8.56259C21.4421 7.96259 20.5471 8.37259 19.8751 8.66259C19.7135 8.75776 19.5347 8.81995 19.3489 8.84557C19.1631 8.87119 18.9741 8.85972 18.7927 8.81183C18.6114 8.76394 18.4413 8.68058 18.2924 8.56656C18.1435 8.45255 18.0187 8.31015 17.9251 8.14759C17.7863 7.81031 17.7424 7.44149 17.7981 7.08104C17.8538 6.7206 18.007 6.38224 18.2411 6.10259C18.8991 5.15559 19.7771 4.37759 20.4591 3.43559C21.3291 2.27259 21.9161 0.391587 23.6731 0.529587C24.034 0.569695 24.3777 0.705011 24.669 0.921671C24.9604 1.13833 25.1889 1.42855 25.3311 1.76259C25.4634 2.14283 25.4857 2.55266 25.3954 2.94501C25.3052 3.33735 25.1062 3.69628 24.8211 3.98059" fill="#8989A2"/>
<path fill-rule="evenodd" clip-rule="evenodd" d="M32.1863 23.8096H35.3343V9.63758L41.0263 23.8096H42.1553L47.7433 9.64058V23.8096H51.2333V5.04858H46.6143L41.7883 17.8666L36.8583 5.06058H32.1863V23.8096ZM53.2663 23.8096H56.4413V10.0866H53.2663V23.8096ZM54.8143 7.83158C55.2368 7.81836 55.6418 7.65932 55.9604 7.38146C56.2791 7.1036 56.4918 6.72403 56.5623 6.30719C56.6329 5.89035 56.5571 5.46193 56.3477 5.09465C56.1383 4.72737 55.8083 4.44386 55.4137 4.29225C55.019 4.14064 54.584 4.13028 54.1826 4.26292C53.7812 4.39555 53.438 4.66302 53.2114 5.01991C52.9847 5.3768 52.8886 5.80113 52.9392 6.22086C52.9899 6.64059 53.1842 7.02985 53.4893 7.32258C53.6649 7.49166 53.8727 7.62382 54.1002 7.71125C54.3278 7.79867 54.5706 7.83959 54.8143 7.83158ZM58.4723 23.8096H61.6473V15.7266C61.6124 15.2916 61.6715 14.8542 61.8206 14.4441C61.9697 14.034 62.2053 13.6608 62.5114 13.3499C62.8176 13.0389 63.187 12.7975 63.5947 12.642C64.0024 12.4864 64.4388 12.4205 64.8743 12.4486C66.7623 12.4486 67.6033 13.3926 67.6033 15.4656V23.8096H70.7783V15.1816C70.7783 11.4026 68.8363 9.80258 66.0783 9.80258C65.1811 9.75057 64.2876 9.95469 63.502 10.3911C62.7164 10.8276 62.0711 11.4783 61.6413 12.2676V10.0866H58.4713L58.4723 23.8096ZM78.8573 24.0706C82.3723 24.0706 84.7063 22.4956 85.1573 19.6116H82.0933C81.8463 20.9476 80.8613 21.7116 78.9453 21.7116C76.5843 21.7116 75.2723 20.2326 75.1663 17.6446H85.2133V16.7276C85.2133 11.8196 82.1443 9.80058 78.7333 9.80058C74.8263 9.80058 71.9123 12.6326 71.9123 16.8846V17.0946C71.8537 18.0241 71.9932 18.9555 72.3216 19.827C72.6501 20.6986 73.1599 21.4904 73.8173 22.1501C74.4748 22.8098 75.2648 23.3224 76.1353 23.6538C77.0057 23.9852 77.9365 24.128 78.8663 24.0726L78.8573 24.0706ZM75.2093 15.5176C75.5293 13.3926 76.8163 12.1036 78.7293 12.1036C80.7013 12.1036 81.9043 13.1516 82.0623 15.5126L75.2093 15.5176Z" fill="#8989A2"/>
</svg>
