<svg width="40" height="40" viewBox="0 0 40 40" fill="none" xmlns="http://www.w3.org/2000/svg">
<path d="M20 40C31.0457 40 40 31.0457 40 20C40 8.9543 31.0457 0 20 0C8.9543 0 0 8.9543 0 20C0 31.0457 8.9543 40 20 40Z" fill="#FFF1F0"/>
<path d="M14.985 19.438V12.471H24.037V19.438L26.944 17.823L25.044 16.708V11.965C25.044 11.8324 24.9913 11.7052 24.8976 11.6115C24.8038 11.5177 24.6766 11.465 24.544 11.465H14.482C14.3494 11.465 14.2222 11.5177 14.1285 11.6115C14.0347 11.7052 13.982 11.8324 13.982 11.965V16.706L12.062 17.815L14.985 19.438Z" fill="#F5222D"/>
<path d="M19.755 22.9671C19.6804 23.0087 19.5964 23.0306 19.511 23.0306C19.4255 23.0306 19.3415 23.0087 19.267 22.9671L11.465 18.6331V27.0531C11.465 27.1857 11.5176 27.3128 11.6114 27.4066C11.7052 27.5004 11.8324 27.5531 11.965 27.5531H27.054C27.1866 27.5531 27.3138 27.5004 27.4075 27.4066C27.5013 27.3128 27.554 27.1857 27.554 27.0531V18.6331L19.755 22.9671Z" fill="#F5222D"/>
<path d="M18.0019 18.713L16.1379 16.849C16.0909 16.8025 16.0536 16.7472 16.0281 16.6862C16.0026 16.6251 15.9895 16.5597 15.9895 16.4935C15.9895 16.4274 16.0026 16.362 16.0281 16.3009C16.0536 16.2399 16.0909 16.1845 16.1379 16.138L18.0019 14.274L18.7129 14.985L17.2049 16.494L18.7139 18.003L18.0019 18.713Z" fill="#F5222D"/>
<path d="M21.0219 18.713L20.3109 18.002L21.8199 16.493L20.3079 14.988L21.0189 14.277L22.8829 16.138C22.9299 16.1845 22.9672 16.2399 22.9927 16.3009C23.0181 16.3619 23.0313 16.4274 23.0313 16.4935C23.0313 16.5597 23.0181 16.6251 22.9927 16.6862C22.9672 16.7472 22.9299 16.8025 22.8829 16.849L21.0219 18.713Z" fill="#F5222D"/>
</svg>
