<svg width="40" height="40" viewBox="0 0 40 40" fill="none" xmlns="http://www.w3.org/2000/svg">
<path d="M20 40C31.0457 40 40 31.0457 40 20C40 8.9543 31.0457 0 20 0C8.9543 0 0 8.9543 0 20C0 31.0457 8.9543 40 20 40Z" fill="#F6FFED"/>
<path d="M20.5131 12H19.4861V19.7H17.9451V20.732H19.4861V28.432H20.5131V25.355H22.0541V24.328H20.5131V16.109H22.0541V15.082H20.5131V12Z" fill="#52C41A"/>
<path d="M27 13.219H24C23.4477 13.219 23 13.6667 23 14.219V17.219C23 17.7713 23.4477 18.219 24 18.219H27C27.5523 18.219 28 17.7713 28 17.219V14.219C28 13.6667 27.5523 13.219 27 13.219Z" fill="#52C41A"/>
<path d="M27 22.219H24C23.4477 22.219 23 22.6667 23 23.219V26.219C23 26.7713 23.4477 27.219 24 27.219H27C27.5523 27.219 28 26.7713 28 26.219V23.219C28 22.6667 27.5523 22.219 27 22.219Z" fill="#52C41A"/>
<path d="M16 17.219H13C12.4477 17.219 12 17.6667 12 18.219V22.219C12 22.7713 12.4477 23.219 13 23.219H16C16.5523 23.219 17 22.7713 17 22.219V18.219C17 17.6667 16.5523 17.219 16 17.219Z" fill="#52C41A"/>
</svg>
