<svg width="145" height="39" viewBox="0 0 145 39" fill="none" xmlns="http://www.w3.org/2000/svg">
<path d="M97.2842 15.795L90.729 21.952L97.7974 30.076C96.0464 30.076 94.5291 30.106 93.0151 30.046C92.7661 30.036 92.5004 29.657 92.2974 29.404C90.4894 27.161 88.6972 24.904 86.6772 22.697V30.005H82.9771V9.26001H86.6094V21.439L86.8979 21.596C87.3759 21.065 87.849 20.529 88.332 20.003C89.559 18.669 90.7762 17.325 92.0322 16.018C92.2915 15.7287 92.6427 15.5377 93.0264 15.477C94.3624 15.415 95.703 15.452 97.042 15.452L97.2842 15.795Z" fill="#8989A2"/>
<path d="M130.589 30.096V15.523H134.089V17.48L134.463 17.749C134.488 17.5539 134.546 17.3647 134.637 17.19C135.356 16.2251 136.367 15.5186 137.521 15.1761C138.675 14.8336 139.908 14.8736 141.037 15.29C142.106 15.6717 143.027 16.3817 143.669 17.3185C144.31 18.2553 144.64 19.371 144.609 20.506C144.646 23.658 144.618 26.811 144.618 30.095C143.499 30.095 142.464 30.141 141.44 30.057C141.229 30.04 140.899 29.542 140.893 29.257C140.847 27.073 140.869 24.889 140.866 22.704C140.866 22.304 140.86 21.897 140.837 21.495C140.704 19.144 139.771 18.034 137.929 18.027C137.456 18.0071 136.984 18.0846 136.542 18.2547C136.1 18.4248 135.698 18.6838 135.361 19.0158C135.023 19.3477 134.758 19.7454 134.58 20.1842C134.403 20.6231 134.317 21.0938 134.329 21.567C134.236 24.017 134.245 26.473 134.292 28.925C134.31 29.834 134.082 30.206 133.125 30.111C132.302 30.031 131.465 30.096 130.589 30.096Z" fill="#8989A2"/>
<path d="M69.2212 30.03H65.6479V15.522H69.0942C69.1322 16.208 69.1683 16.853 69.2183 17.733C69.6325 17.0185 70.2027 16.4067 70.8862 15.9432C71.5698 15.4797 72.3489 15.1764 73.166 15.056C76.901 14.621 79.5252 16.85 79.6182 20.626C79.6892 23.514 79.618 26.405 79.644 29.294C79.649 29.909 79.4441 30.131 78.8291 30.106C77.8961 30.068 76.9613 30.096 75.8813 30.096C75.8813 29.582 75.8873 29.16 75.8813 28.738C75.8383 26.054 75.831 23.369 75.728 20.687C75.7479 20.0877 75.5562 19.5005 75.1865 19.0284C74.8168 18.5563 74.2927 18.2294 73.7061 18.105C73.0404 17.8844 72.3195 17.898 71.6626 18.1433C71.0057 18.3887 70.4524 18.8511 70.0942 19.454C69.5873 20.4251 69.3016 21.4964 69.2573 22.591C69.1403 25.039 69.2212 27.488 69.2212 30.03Z" fill="#8989A2"/>
<path d="M39.6831 18.27H37.2471V15.484H39.8662C39.8662 13.768 39.8662 12.171 39.8662 10.573C39.8662 9.268 39.8663 9.26799 41.1753 9.26599C43.5523 9.26599 43.5512 9.26601 43.5532 11.622C43.5532 12.7647 43.5596 13.9073 43.5723 15.05C43.5967 15.1749 43.6356 15.2964 43.689 15.412H47.3452V18.239H43.624C43.597 18.709 43.5572 19.094 43.5562 19.479C43.5562 21.394 43.5271 23.311 43.5811 25.225C43.6341 27.092 44.3523 27.653 46.2173 27.419C46.5123 27.382 46.811 27.37 47.083 27.348C47.128 27.427 47.1582 27.456 47.1592 27.486C47.2392 30.196 47.8951 30.286 44.6851 30.349C41.4501 30.414 39.9091 28.914 39.8071 25.685C39.7421 23.603 39.771 21.519 39.751 19.436C39.747 19.076 39.7091 18.718 39.6831 18.27Z" fill="#8989A2"/>
<path d="M27.0201 15.956C26.8381 16.111 26.7658 16.169 26.6978 16.232C26.4698 16.444 26.2425 16.6567 26.0152 16.87C25.8061 16.6238 25.6284 16.3524 25.4869 16.062C25.2349 15.334 25.0872 14.569 24.8292 13.844C24.3914 12.3563 23.6346 10.9818 22.6119 9.81601C21.6119 12.208 21.6119 12.208 21.0909 12.463C20.9072 10.9815 20.6467 9.51046 20.3101 8.056C19.9031 6.597 19.2302 5.21201 18.6202 3.65601L17.4283 5.76202C16.9113 4.53202 16.557 3.48701 16.044 2.52701C15.5895 1.47193 14.8135 0.587466 13.8262 0C13.6262 5.153 11.0691 8.83401 6.79108 10.152L6.25201 8.22202C4.89933 9.39383 3.905 10.9239 3.38385 12.636C2.85785 14.283 2.48387 15.978 2.02887 17.68L1.42926 17.401C0.660022 19.1283 0.192562 20.9747 0.047912 22.86C-0.614088 30.492 5.68023 37.913 12.9722 38.003C16.2268 38.1609 19.4226 37.0938 21.9293 35.012C27.9343 29.878 28.3181 23.194 27.0201 15.956ZM19.6978 31.891C19.387 31.9814 19.1009 32.1409 18.8604 32.3575C18.6199 32.5741 18.4314 32.8423 18.3091 33.142C17.8302 34.1287 17.0486 34.9369 16.0787 35.4489C15.1087 35.961 14.001 36.1502 12.9161 35.989C11.8131 35.806 10.8074 35.2473 10.0694 34.4074C9.33143 33.5676 8.90686 32.4983 8.86725 31.381C8.82073 31.0137 8.6319 30.6791 8.34186 30.449C7.45354 29.9197 6.75677 29.1212 6.3526 28.1694C5.94843 27.2176 5.85779 26.1618 6.09381 25.155C6.25142 24.2032 6.69308 23.3211 7.36041 22.6243C8.02775 21.9276 8.88989 21.4485 9.83404 21.25C10.8063 20.9497 11.8507 20.9803 12.8038 21.3369C13.7568 21.6936 14.5649 22.3562 15.1011 23.221C15.1781 23.327 15.2652 23.427 15.3472 23.53L15.4468 23.247C16.7004 23.0243 17.9757 22.9458 19.2471 23.013C20.2002 23.1833 21.0649 23.6776 21.6954 24.4124C22.3259 25.1471 22.6835 26.0771 22.7071 27.045C22.8124 28.072 22.5741 29.1049 22.0294 29.9819C21.4846 30.8588 20.6641 31.5303 19.6968 31.891H19.6978Z" fill="#8989A2"/>
<path d="M112.765 22.39C112.721 18.49 110.444 15.672 106.874 15.09C102.795 14.42 98.9858 16.474 97.7838 20.072C96.2568 24.641 98.4489 29.672 104.072 30.395C107.139 30.789 109.863 30.195 112.062 27.617C111.508 27.3274 110.97 27.0075 110.451 26.659C110.184 26.4457 109.854 26.3273 109.513 26.3224C109.171 26.3176 108.838 26.4265 108.565 26.632C107.681 27.0976 106.719 27.394 105.726 27.506C105.184 27.572 104.634 27.5288 104.109 27.379C103.584 27.2291 103.095 26.9756 102.669 26.6335C102.244 26.2913 101.891 25.8674 101.632 25.3868C101.373 24.9062 101.213 24.3785 101.161 23.835H112.761C112.765 23.258 112.771 22.824 112.765 22.39ZM101.233 21.274C101.214 20.6727 101.37 20.0789 101.681 19.5643C101.993 19.0496 102.447 18.6362 102.988 18.374C103.648 17.9331 104.421 17.6901 105.214 17.6738C106.008 17.6575 106.79 17.8685 107.468 18.282C107.979 18.5869 108.394 19.0307 108.664 19.5616C108.933 20.0926 109.046 20.6891 108.991 21.282L101.233 21.274Z" fill="#8989A2"/>
<path d="M127.889 19.638C127.846 18.6291 127.458 17.6658 126.789 16.9097C126.12 16.1535 125.211 15.6504 124.215 15.485C122.581 15.1778 120.911 15.1078 119.257 15.277C117.603 15.4493 116.058 16.1842 114.881 17.359L116.751 19.476C117.135 19.218 117.405 19.019 117.69 18.847C118.436 18.3252 119.299 17.9966 120.204 17.8905C121.108 17.7844 122.025 17.9041 122.871 18.239C123.149 18.3195 123.408 18.4546 123.632 18.6364C123.857 18.8182 124.044 19.0431 124.18 19.2978C124.317 19.5525 124.402 19.8319 124.429 20.1198C124.457 20.4076 124.427 20.698 124.341 20.974C123.893 20.999 123.427 21.029 122.962 21.052C120.545 21.172 118.11 21.264 115.962 22.57C115.36 22.9125 114.858 23.4057 114.505 24.001C114.151 24.5963 113.959 25.2733 113.946 25.9654C113.933 26.6576 114.101 27.3411 114.432 27.9488C114.764 28.5566 115.248 29.0677 115.837 29.432C117.131 30.2284 118.65 30.5821 120.163 30.44C121.004 30.4129 121.83 30.2094 122.587 29.8426C123.344 29.4759 124.015 28.954 124.557 28.311C124.608 29.011 124.643 29.495 124.682 30.031H128.227C128.128 26.518 128.126 23.07 127.889 19.638ZM123.09 27.038C122.452 27.482 121.706 27.7445 120.931 27.7973C120.156 27.8502 119.381 27.6914 118.69 27.338C118.429 27.2167 118.205 27.0282 118.041 26.7918C117.878 26.5554 117.78 26.2796 117.758 25.9929C117.736 25.7061 117.791 25.4188 117.918 25.1604C118.044 24.9021 118.237 24.682 118.476 24.523C118.945 24.1449 119.495 23.8825 120.084 23.757C121.484 23.529 122.915 23.441 124.438 23.287C124.635 24.937 124.333 26.224 123.087 27.034L123.09 27.038Z" fill="#8989A2"/>
<path d="M56.5451 15.049C51.5061 14.916 48.1131 17.93 48.0231 22.62C48.0098 24.7152 48.8293 26.7299 50.3014 28.2208C51.7736 29.7117 53.778 30.5568 55.8732 30.57C57.9684 30.5833 59.9829 29.7637 61.4738 28.2915C62.9647 26.8194 63.8097 24.8152 63.8229 22.72C63.855 21.7369 63.6915 20.7572 63.342 19.8377C62.9925 18.9182 62.4643 18.0772 61.7873 17.3636C61.1102 16.65 60.298 16.078 59.3981 15.6807C58.4983 15.2833 57.5286 15.0686 56.5451 15.049ZM59.7941 24.397C59.6802 24.9244 59.4597 25.423 59.1462 25.8621C58.8326 26.3012 58.4327 26.6716 57.9709 26.9505C57.509 27.2295 56.9947 27.4111 56.4601 27.4843C55.9255 27.5575 55.3818 27.5206 54.862 27.376C52.987 26.89 51.7962 25.015 51.8092 22.57C51.8272 19.306 54.1902 17.28 57.0812 18.05C59.3732 18.66 60.5731 21.467 59.7941 24.397Z" fill="#8989A2"/>
<path d="M16.5557 28.113C16.9557 27.68 17.2017 27.196 17.5557 27.092C17.7688 27.0485 17.9892 27.0535 18.2002 27.1064C18.4112 27.1594 18.6076 27.259 18.7749 27.398C19.0439 27.664 19.0368 28.208 19.1978 28.805L16.5557 28.113Z" fill="#8989A2"/>
<path d="M10.2082 27.098C10.1982 26.174 10.583 25.68 11.447 25.709C12.247 25.736 12.6401 26.19 12.5471 27.098H10.2082Z" fill="#8989A2"/>
</svg>
